<svg xmlns="http://www.w3.org/2000/svg" width="512" height="512" viewBox="0 0 512 512" version="1.1">
	<path d="M 396.604 15.007 C 390.653 16.852, 388.558 20.351, 377.962 46.140 L 367.698 71.124 361.599 74.180 C 338.708 85.650, 321.806 106.721, 315.366 131.818 C 313.206 140.234, 312.791 144.638, 312.190 165.500 L 311.500 189.500 308.536 195.350 C 304.814 202.695, 297.606 209.253, 290.202 212.032 C 285.518 213.789, 281.107 214.317, 265.500 214.984 C 254.941 215.436, 242.946 216.540, 238.500 217.470 C 183.626 228.944, 140.013 270.781, 126.508 324.901 C 122.436 341.220, 121.836 351.339, 122.233 397 C 122.646 444.422, 122.675 444.658, 129.928 459.291 L 133.790 467.082 92.145 466.791 C 51.622 466.508, 50.392 466.442, 46.500 464.335 C 41.372 461.559, 35.837 455.721, 32.909 450 C 29.502 443.346, 29.644 432.366, 33.227 425.437 C 36.210 419.667, 42.515 413.545, 47.860 411.229 C 49.908 410.341, 55.975 409.382, 61.731 409.035 C 69.830 408.548, 72.538 407.992, 74.731 406.368 C 84.373 399.225, 84.345 387.742, 74.669 380.592 C 72.161 378.739, 70.562 378.516, 60.669 378.640 C 41.811 378.877, 27.754 384.937, 15.591 398.075 C 9.370 404.795, 2.845 417.270, 1.090 425.799 C -0.305 432.579, -0.305 443.421, 1.090 450.201 C 5.472 471.505, 24.353 490.820, 46 496.147 C 50.495 497.253, 77.895 497.500, 196 497.500 L 340.500 497.500 340.490 482 C 340.481 467.058, 340.379 466.294, 337.677 460.770 C 331.887 448.938, 324.982 446, 302.966 446 C 289.399 446, 288.047 445.831, 284.990 443.750 C 283.172 442.512, 280.743 440.231, 279.592 438.679 C 277.574 435.958, 277.480 434.432, 276.950 395.679 C 276.430 357.609, 276.287 355.194, 274.225 349.664 C 266.748 329.614, 251.464 315.273, 230.938 309.049 C 228.980 308.455, 223.254 307.589, 218.215 307.124 C 210.641 306.425, 208.457 305.823, 205.608 303.650 C 201.582 300.579, 199.555 295.357, 200.283 289.930 C 201.519 280.711, 208.965 276.267, 221.236 277.424 C 243.699 279.541, 262.255 287.786, 278.011 302.649 C 290.459 314.392, 299.544 329.619, 304.174 346.500 C 306.158 353.735, 306.405 357.425, 306.759 385.106 L 307.150 415.711 315.825 416.331 C 331.972 417.484, 343.532 422.532, 354 433 C 363.772 442.772, 370 456.969, 370 469.473 C 370 473.598, 370.647 475.488, 373.523 479.759 C 377.924 486.294, 385.262 492.165, 392.748 495.142 C 397.955 497.213, 400.158 497.433, 416 497.465 C 432.334 497.498, 433.851 497.341, 438.770 495.118 C 446.130 491.792, 453.496 483.541, 455.616 476.249 C 460.756 458.568, 449.390 440.837, 430.750 437.457 L 427 436.777 427 402.501 L 427 368.225 434.610 356.863 C 447.669 337.363, 457.970 313.937, 463.132 292 C 466.901 275.983, 467.959 263.650, 468.020 235 L 468.078 207.500 484.330 195.739 C 493.269 189.270, 501.363 182.656, 502.317 181.041 C 504.090 178.038, 512 141.009, 512 135.707 C 512 129.276, 508.631 125.802, 492.976 116.084 C 479.175 107.518, 477.872 106.443, 473.894 100.338 C 462.634 83.055, 442.348 69.832, 423.278 67.347 C 420.650 67.004, 417.938 66.281, 417.250 65.739 C 416.326 65.012, 416 59.668, 416 45.279 C 416 29.464, 415.698 25.166, 414.394 22.417 C 411.608 16.548, 403.086 12.998, 396.604 15.007 M 442.604 114.041 C 438.519 115.260, 434.149 119.771, 432.848 124.112 C 431.295 129.295, 432.530 134.359, 436.328 138.386 C 444.121 146.649, 457.775 143.157, 461.103 132.051 C 464.248 121.553, 453.265 110.859, 442.604 114.041" stroke="none" fill="black" fill-rule="evenodd"/>
</svg>